HIERARCHY
ROOT joint_Root
{
	OFFSET 0.0 0.0 0.0
	CHANNELS 6 Xposition Yposition Zposition Zrotation Xrotation Yrotation 
	JOINT Hips
	{
		OFFSET -17.1583 93.1646 452.98
		CHANNELS 6 Xposition Yposition Zposition Zrotation Xrotation Yrotation 
		JOINT Spine
		{
			OFFSET 15.7357 0.0 0.0
			CHANNELS 6 Xposition Yposition Zposition Zrotation Xrotation Yrotation 
			JOINT Chest
			{
				OFFSET 8.98455 -0.406207 0.0
				CHANNELS 6 Xposition Yposition Zposition Zrotation Xrotation Yrotation 
				JOINT Neck
				{
					OFFSET 16.3773 0.0 0.0
					CHANNELS 6 Xposition Yposition Zposition Zrotation Xrotation Yrotation 
					JOINT Head
					{
						OFFSET 6.45672 0.0 0.0
						CHANNELS 6 Xposition Yposition Zposition Zrotation Xrotation Yrotation 
						End Site
						{
							OFFSET 0.0 0.0 0.0
						}
					}
				}
				JOINT Shoulder_L
				{
					OFFSET 12.9942 -0.242716 4.98039
					CHANNELS 6 Xposition Yposition Zposition Zrotation Xrotation Yrotation 
					JOINT UpperArm_L
					{
						OFFSET 5.34809 0.0 0.0
						CHANNELS 6 Xposition Yposition Zposition Zrotation Xrotation Yrotation 
						JOINT LowerArm_L
						{
							OFFSET 24.3286 1.87007e-05 0.0
							CHANNELS 6 Xposition Yposition Zposition Zrotation Xrotation Yrotation 
							JOINT Hand_L
							{
								OFFSET 22.2916 0.0 0.0
								CHANNELS 6 Xposition Yposition Zposition Zrotation Xrotation Yrotation 
								End Site
								{
									OFFSET 0.0 0.0 0.0
								}
							}
						}
					}
				}
				JOINT Shoulder_R
				{
					OFFSET 12.9945 -0.242716 -4.98039
					CHANNELS 6 Xposition Yposition Zposition Zrotation Xrotation Yrotation 
					JOINT UpperArm_R
					{
						OFFSET -5.34813 0.0 0.0
						CHANNELS 6 Xposition Yposition Zposition Zrotation Xrotation Yrotation 
						JOINT LowerArm_R
						{
							OFFSET -24.3289 0.000322201 0.0
							CHANNELS 6 Xposition Yposition Zposition Zrotation Xrotation Yrotation 
							JOINT Hand_R
							{
								OFFSET -22.2915 -0.000108084 0.0
								CHANNELS 6 Xposition Yposition Zposition Zrotation Xrotation Yrotation 
								End Site
								{
									OFFSET 0.0 0.0 0.0
								}
							}
						}
					}
				}
			}
		}
		JOINT UpperLeg_L
		{
			OFFSET -2.19248 -6.46944 0.0
			CHANNELS 6 Xposition Yposition Zposition Zrotation Xrotation Yrotation 
			JOINT LowerLeg_L
			{
				OFFSET 39.0811 0.0 -1.23785e-05
				CHANNELS 6 Xposition Yposition Zposition Zrotation Xrotation Yrotation 
				JOINT Foot_L
				{
					OFFSET 40.9854 0.0 -1.26872e-05
					CHANNELS 6 Xposition Yposition Zposition Zrotation Xrotation Yrotation 
					JOINT Toes_L
					{
						OFFSET 11.7543 0.0 0.0
						CHANNELS 6 Xposition Yposition Zposition Zrotation Xrotation Yrotation 
						End Site
						{
							OFFSET 0.0 0.0 0.0
						}
					}
				}
			}
		}
		JOINT UpperLeg_R
		{
			OFFSET -2.19251 6.46944 0.0
			CHANNELS 6 Xposition Yposition Zposition Zrotation Xrotation Yrotation 
			JOINT LowerLeg_R
			{
				OFFSET -39.0811 -0.00228153 -0.0401928
				CHANNELS 6 Xposition Yposition Zposition Zrotation Xrotation Yrotation 
				JOINT Foot_R
				{
					OFFSET -40.9854 0.0 0.0
					CHANNELS 6 Xposition Yposition Zposition Zrotation Xrotation Yrotation 
					JOINT Toes_R
					{
						OFFSET -11.7543 0.0 0.0
						CHANNELS 6 Xposition Yposition Zposition Zrotation Xrotation Yrotation 
						End Site
						{
							OFFSET 0.0 0.0 0.0
						}
					}
				}
			}
		}
	}
}
MOTION
Frames:	6
Frame Time:	0.0333333
0.000000 0.000000 0.000000 0.000000 0.000000 -0.000000 100.609000 90.090300 232.836000 -89.568600 76.586800 -173.451000 15.735700 0.000005 -0.000001 82.748500 84.767100 -81.063700 8.984550 -0.406207 -0.000000 2.639560 -1.395240 3.398490 16.377300 -0.000001 -0.000001 19.430200 16.810200 -7.118520 6.456720 -0.000001 -0.000000 4.645840 26.130300 -0.372195 12.994200 -0.242716 4.980390 -92.867000 6.503080 -66.145900 5.348090 -0.000007 -0.000001 -75.130000 -3.555830 4.808450 24.328600 0.000019 0.000005 6.909180 10.558200 -33.467500 22.291600 -0.000001 0.000005 45.280100 4.544040 15.863900 12.994500 -0.242716 -4.980390 89.199400 2.262330 -70.506100 -5.348130 -0.000001 -0.000004 -71.108600 7.760830 6.813530 -24.328900 0.000322 -0.000009 0.985884 5.147180 -10.872800 -22.291500 -0.000108 -0.000004 34.650700 5.484810 -5.937020 -2.192480 -6.469440 -0.000000 167.529000 1.348290 -6.038840 39.081100 -0.000007 -0.000012 0.311871 -0.594670 27.675100 40.985400 -0.000006 -0.000013 15.517500 8.888320 -68.540400 11.754300 -0.000000 0.000003 -0.000590 0.177021 -9.396380 -2.192510 6.469440 -0.000001 170.817000 -0.494720 165.261000 -39.081100 -0.002282 -0.040193 0.133499 -0.058912 65.677700 -40.985400 0.000008 0.000006 -8.277870 -6.260250 -60.112000 -11.754300 -0.000006 -0.000006 -0.002591 0.203558 -8.314040
0.000000 0.000000 0.000000 0.000000 0.000000 -0.000000 103.897000 90.612600 232.446000 -83.642700 72.863500 -178.859000 15.735700 0.000005 -0.000001 76.506300 84.571500 -74.268000 8.984550 -0.406207 -0.000000 2.849120 -2.626920 4.538040 16.377300 -0.000001 -0.000001 19.002300 16.215300 -6.800030 6.456720 -0.000001 -0.000000 4.649740 25.671100 -0.285940 12.994200 -0.242716 4.980390 -92.799500 6.527910 -66.726500 5.348090 -0.000007 -0.000001 -74.101500 -2.920670 3.056990 24.328600 0.000019 0.000005 13.119700 15.490200 -41.100400 22.291600 -0.000001 0.000005 45.794100 4.596770 14.964900 12.994500 -0.242716 -4.980390 89.267200 2.001840 -69.890200 -5.348130 -0.000001 -0.000004 -69.634500 4.337230 9.407850 -24.328900 0.000322 -0.000009 0.571567 5.885520 -5.569320 -22.291500 -0.000108 -0.000004 36.197600 5.453970 -4.786600 -2.192480 -6.469440 -0.000000 169.184000 4.510090 -1.793580 39.081100 -0.000007 -0.000012 0.268958 -0.560987 25.615300 40.985400 -0.000006 -0.000013 15.601300 9.386740 -69.887200 11.754300 -0.000000 0.000003 -0.000479 0.175325 -9.465290 -2.192510 6.469440 -0.000001 172.974000 -2.247520 163.407000 -39.081100 -0.002282 -0.040193 0.012603 -0.005495 59.689100 -40.985400 0.000008 0.000006 -4.327400 -14.721100 -66.016400 -11.754300 -0.000006 -0.000006 -0.002972 0.207958 -8.134980
0.000000 0.000000 0.000000 0.000000 0.000000 -0.000000 107.007000 91.034900 232.130000 -80.177000 68.751300 177.630000 15.735700 0.000005 -0.000001 70.114200 84.499600 -67.416300 8.984550 -0.406207 -0.000000 2.680890 -3.858250 5.482240 16.377300 -0.000001 -0.000001 18.490600 15.518200 -6.204830 6.456720 -0.000001 -0.000000 4.405080 25.139800 -0.092021 12.994200 -0.242716 4.980390 -92.745200 6.568130 -67.257000 5.348090 -0.000007 -0.000001 -72.831800 -3.432550 1.194930 24.328600 0.000019 0.000005 20.069700 18.369800 -49.215200 22.291600 -0.000001 0.000005 47.963300 4.545240 15.845300 12.994500 -0.242716 -4.980390 89.297000 1.857780 -69.269100 -5.348130 -0.000001 -0.000004 -67.819300 0.881085 11.778400 -24.328900 0.000322 -0.000009 0.132461 6.490890 -1.181210 -22.291500 -0.000108 -0.000004 37.866700 5.418320 -3.546750 -2.192480 -6.469440 -0.000000 171.059000 7.943150 1.103870 39.081100 -0.000007 -0.000012 0.182461 -0.404054 24.303000 40.985400 -0.000006 -0.000013 13.674900 10.568300 -70.347100 11.754300 -0.000000 0.000003 0.000613 0.156580 -10.226500 -2.192510 6.469440 -0.000001 174.363000 -3.999260 162.376000 -39.081100 -0.002282 -0.040193 -0.023598 0.022416 50.136800 -40.985400 0.000008 0.000006 -2.016870 -19.896500 -69.295000 -11.754300 -0.000006 -0.000006 -0.003287 0.211474 -7.991870
0.000000 0.000000 0.000000 0.000000 0.000000 -0.000000 110.118000 91.284200 231.650000 -79.311000 64.873800 176.751000 15.735700 0.000005 -0.000001 65.841200 84.414200 -62.988400 8.984550 -0.406207 -0.000000 2.558370 -4.697960 5.807380 16.377300 -0.000001 -0.000001 17.822100 14.789600 -5.289220 6.456720 -0.000001 -0.000000 4.131590 24.355500 0.246119 12.994200 -0.242716 4.980390 -92.583900 6.340130 -67.772300 5.348090 -0.000007 -0.000001 -72.147000 -4.747020 -1.108640 24.328600 0.000019 0.000005 24.733000 18.260000 -55.775700 22.291600 -0.000001 0.000005 49.207900 4.495490 16.673200 12.994500 -0.242716 -4.980390 89.360400 1.647080 -68.774800 -5.348130 -0.000001 -0.000004 -66.392400 -1.927470 14.410700 -24.328900 0.000322 -0.000009 -0.000992 6.073530 0.000021 -22.291500 -0.000108 -0.000004 39.947800 5.382030 -2.365190 -2.192480 -6.469440 -0.000000 172.182000 11.854000 3.720090 39.081100 -0.000007 -0.000012 0.072454 -0.168450 23.273700 40.985400 -0.000006 -0.000013 9.858770 11.363200 -69.817700 11.754300 -0.000000 0.000003 0.001058 0.147352 -10.601000 -2.192510 6.469440 -0.000001 174.461000 -6.100460 162.722000 -39.081100 -0.002282 -0.040193 -0.015302 0.023458 38.388500 -40.985400 0.000008 0.000006 -1.841740 -21.703100 -71.250000 -11.754300 -0.000006 -0.000006 -0.004271 0.221893 -7.567630
0.000000 0.000000 0.000000 0.000000 0.000000 -0.000000 113.307000 91.259100 231.003000 -79.618000 61.938600 177.085000 15.735700 0.000005 -0.000001 64.145900 84.451600 -61.397100 8.984550 -0.406207 -0.000000 2.353360 -4.965180 5.597040 16.377300 -0.000001 -0.000001 17.405600 14.213200 -4.305930 6.456720 -0.000001 -0.000000 3.831390 23.488500 0.703236 12.994200 -0.242716 4.980390 -92.397700 5.982520 -68.112700 5.348090 -0.000007 -0.000001 -71.969500 -6.266100 -3.428820 24.328600 0.000019 0.000005 27.069800 16.807100 -60.498600 22.291600 -0.000001 0.000005 50.738900 4.448650 17.438300 12.994500 -0.242716 -4.980390 89.527300 1.208890 -68.642400 -5.348130 -0.000001 -0.000004 -65.730100 -3.704220 17.283200 -24.328900 0.000322 -0.000009 -0.001038 4.964550 0.000015 -22.291500 -0.000108 -0.000004 42.063300 5.362290 -1.750870 -2.192480 -6.469440 -0.000000 172.906000 13.679600 6.267000 39.081100 -0.000007 -0.000012 -0.001525 0.003679 22.513000 40.985400 -0.000006 -0.000013 7.314010 12.985300 -69.804400 11.754300 -0.000000 0.000003 0.001705 0.130843 -11.270800 -2.192510 6.469440 -0.000001 173.536000 -8.751120 163.617000 -39.081100 -0.002282 -0.040193 -0.000327 0.007188 26.832800 -40.985400 0.000008 0.000006 -3.747650 -18.590400 -72.840500 -11.754300 -0.000006 -0.000006 -0.005214 0.231191 -7.188780
0.000000 0.000000 0.000000 0.000000 0.000000 -0.000000 116.669000 91.002900 230.268000 -79.501700 60.257700 176.952000 15.735700 0.000005 -0.000001 64.323400 84.630700 -61.730200 8.984550 -0.406207 -0.000000 2.032630 -4.779610 5.268790 16.377300 -0.000001 -0.000001 17.111600 13.954400 -3.388060 6.456720 -0.000001 -0.000000 3.684580 22.944500 1.181780 12.994200 -0.242716 4.980390 -92.291300 5.735970 -68.181600 5.348090 -0.000007 -0.000001 -72.104300 -8.376470 -5.203740 24.328600 0.000019 0.000005 29.077800 15.490200 -64.345900 22.291600 -0.000001 0.000005 52.133000 4.390080 18.380300 12.994500 -0.242716 -4.980390 89.694000 0.789208 -68.808400 -5.348130 -0.000001 -0.000004 -65.563200 -4.496470 19.167700 -24.328900 0.000322 -0.000009 -0.001036 4.551110 0.000013 -22.291500 -0.000108 -0.000004 43.860600 5.348290 -1.327520 -2.192480 -6.469440 -0.000000 173.717000 13.729300 8.361340 39.081100 -0.000007 -0.000012 0.000555 -0.001323 22.746800 40.985400 -0.000006 -0.000013 7.737550 14.800200 -70.997900 11.754300 -0.000000 0.000003 0.002298 0.106943 -12.240000 -2.192510 6.469440 -0.000001 173.192000 -9.942910 164.304000 -39.081100 -0.002282 -0.040193 0.001522 0.005996 16.757200 -40.985400 0.000008 0.000006 -7.105150 -13.876900 -73.637000 -11.754300 -0.000006 -0.000006 -0.005914 0.237722 -6.922500
